<svg width="21" height="21" viewBox="0 0 21 21" fill="none" xmlns="http://www.w3.org/2000/svg">
<path d="M10.5 0C7.72562 0.0334721 5.07431 1.15047 3.11239 3.11239C1.15047 5.07431 0.0334721 7.72562 0 10.5C0.0334721 13.2744 1.15047 15.9257 3.11239 17.8876C5.07431 19.8495 7.72562 20.9665 10.5 21C13.2744 20.9665 15.9257 19.8495 17.8876 17.8876C19.8495 15.9257 20.9665 13.2744 21 10.5C20.9665 7.72562 19.8495 5.07431 17.8876 3.11239C15.9257 1.15047 13.2744 0.0334721 10.5 0ZM16.5 11.25H11.25V16.5H9.75V11.25H4.5V9.75H9.75V4.5H11.25V9.75H16.5V11.25Z" fill="white"/>
</svg>
