<svg width="242" height="74" viewBox="0 0 242 74" fill="none" xmlns="http://www.w3.org/2000/svg">
<path d="M170.228 17.6018H165.043L165.067 56.1153H186.068V51.3515H170.251L170.228 17.6018Z" fill="#8C929D"/>
<path d="M206.053 49.357C204.745 50.7079 202.58 52.0588 199.631 52.0588C195.683 52.0588 194.09 50.1154 194.09 47.5794C194.09 43.7636 196.753 41.9387 202.414 41.9387C203.484 41.9387 205.197 42.0572 206.077 42.2231V49.357H206.053ZM200.678 26.0118C196.492 26.0118 192.639 27.4813 189.642 29.9698L191.473 33.1457C193.59 31.9133 196.183 30.6809 199.917 30.6809C204.174 30.6809 206.053 32.8613 206.053 36.5112V38.3836C205.221 38.2177 203.508 38.0992 202.462 38.0992C193.376 38.0992 188.762 41.275 188.762 47.9112C188.762 53.8601 192.425 56.8464 197.966 56.8464C201.7 56.8464 205.292 55.1399 206.529 52.3669L207.48 56.1353H211.143V36.4164C211.119 30.1832 208.408 26.0118 200.678 26.0118Z" fill="#8C929D"/>
<path d="M227.872 52.2353C225.922 52.2353 224.21 51.9983 222.925 51.4058V35.4552V33.6066C224.685 32.1372 226.873 31.0706 229.656 31.0706C234.675 31.0706 236.601 34.602 236.601 40.3139C236.601 48.4195 233.485 52.2353 227.872 52.2353ZM230.06 26.0224C225.423 26.0224 222.925 29.1746 222.925 29.1746V24.1974L222.901 17.6087H220.571H217.835L217.859 55.1742C220.404 56.2407 223.877 56.8095 227.658 56.8095C237.338 56.8095 242 50.6473 242 40.0058C241.976 31.592 237.671 26.0224 230.06 26.0224Z" fill="#8C929D"/>
<path d="M113.774 21.7804C118.365 21.7804 121.338 23.2973 123.264 24.8378L125.5 20.9746C122.479 18.3201 118.389 16.8981 114.012 16.8981C102.977 16.8981 95.2467 23.6054 95.2467 37.1384C95.2467 51.3114 103.595 56.8336 113.132 56.8336C117.913 56.8336 121.98 55.7197 124.644 54.6058L124.525 39.4611V37.6835V34.6973H110.373V39.4611H119.411L119.53 50.9559C118.341 51.5484 116.296 52.0224 113.513 52.0224C105.854 52.0224 100.717 47.2112 100.717 37.091C100.693 26.7812 105.997 21.7804 113.774 21.7804Z" fill="#8C929D"/>
<path d="M150.289 17.5964H145.223L145.247 24.0667V26.7212V28.2617V30.9636V46.369V46.4164C145.247 52.6497 147.958 56.821 155.688 56.821C156.759 56.821 157.805 56.7262 158.804 56.5366V52.0098C158.067 52.1283 157.282 52.1757 156.449 52.1757C152.192 52.1757 150.313 49.9952 150.313 46.3453V30.9399H158.804V26.7212H150.313L150.289 17.5964Z" fill="#8C929D"/>
<path d="M132.34 56.1153H137.406V26.7265H132.34V56.1153Z" fill="#8C929D"/>
<path d="M132.34 22.6737H137.406V17.6255H132.34V22.6737Z" fill="#8C929D"/>
<path d="M40.1477 73.7012L54.9411 28.3567H25.3757L40.1477 73.7012Z" fill="#E24329"/>
<path d="M4.65502 28.3567L0.150086 42.1329C-0.257572 43.3838 0.182669 44.7646 1.25866 45.5444L40.1477 73.7009L4.65502 28.3567Z" fill="#FCA326"/>
<path d="M4.65502 28.3567H25.3757L16.4581 1.04786C16.0017 -0.349288 14.0126 -0.349288 13.5398 1.04786L4.65502 28.3567Z" fill="#E24329"/>
<path d="M75.6617 28.3567L80.1505 42.1329C80.5582 43.3838 80.1179 44.7646 79.0419 45.5444L40.1477 73.7012L75.6617 28.3567Z" fill="#FCA326"/>
<path d="M75.6617 28.3567H54.9411L63.8423 1.04786C64.2987 -0.349288 66.2877 -0.349288 66.7606 1.04786L75.6617 28.3567Z" fill="#E24329"/>
<path d="M40.1477 73.7012L54.9411 28.3567H75.6617L40.1477 73.7012Z" fill="#FC6D26"/>
<path d="M40.1477 73.7012L4.65502 28.3567H25.3757L40.1477 73.7012Z" fill="#FC6D26"/>
</svg>
