<svg width="364" height="48" viewBox="0 0 364 48" fill="none" xmlns="http://www.w3.org/2000/svg">
<rect width="364" height="48" rx="6" fill="#F3F2F2"/>
<path d="M332 26C331.717 26 331.479 25.904 331.287 25.712C331.096 25.5207 331 25.2833 331 25C331 24.7167 331.096 24.479 331.287 24.287C331.479 24.0957 331.717 24 332 24C332.283 24 332.521 24.0957 332.713 24.287C332.904 24.479 333 24.7167 333 25C333 25.2833 332.904 25.5207 332.713 25.712C332.521 25.904 332.283 26 332 26ZM336 26C335.717 26 335.479 25.904 335.288 25.712C335.096 25.5207 335 25.2833 335 25C335 24.7167 335.096 24.479 335.288 24.287C335.479 24.0957 335.717 24 336 24C336.283 24 336.521 24.0957 336.713 24.287C336.904 24.479 337 24.7167 337 25C337 25.2833 336.904 25.5207 336.713 25.712C336.521 25.904 336.283 26 336 26ZM340 26C339.717 26 339.479 25.904 339.288 25.712C339.096 25.5207 339 25.2833 339 25C339 24.7167 339.096 24.479 339.288 24.287C339.479 24.0957 339.717 24 340 24C340.283 24 340.521 24.0957 340.712 24.287C340.904 24.479 341 24.7167 341 25C341 25.2833 340.904 25.5207 340.712 25.712C340.521 25.904 340.283 26 340 26ZM327 16H330V14H332V16H340V14H342V16H345V34H327V16ZM329 32H343V22H329V32Z" fill="black"/>
</svg>
